<svg id="Layer_1" enable-background="new 0 0 463.306 463.306" height="512" viewBox="0 0 463.306 463.306" width="512" xmlns="http://www.w3.org/2000/svg"><path d="m329.157 335.38c-13.24-23.15-32.45-42.55-55.98-56-11.79-6.74-26.67-4.6-36.28 5.01-.324.324-3.773 5.903-9.82 11.34-58.62 52.988-174.16-69.462-99.53-120.57 9.834-9.834 11.712-24.721 5.07-36.34-13.45-23.53-32.85-42.74-56-55.98-11.8-6.75-26.53-4.35-36.27 5.12-146.214 141.865 141.35 429.994 283.69 283.69 9.47-9.74 11.87-24.47 5.12-36.27z" fill="#cbe3fa"/><path d="m249.11 326.271c-14.097 4.616-29.666 2.536-44.428-3.961-7-3.08-6.23-13.233 1.186-15.103 7.543-1.902 14.725-5.616 21.21-11.478.332.332 10.579 5.948 24.363 16.598 5.071 3.919 3.76 11.95-2.331 13.944z" fill="#eef7ff"/><path d="m79.81 343.543c-71.521-67.805-110.535-171.778-49.723-244.533 10.576 6.27 20.536 13.232 29.855 20.808 3.196 2.598 3.857 7.217 1.566 10.639-40.96 61.173-19.126 140.43 30.094 202.33 6.185 7.779-4.579 17.593-11.792 10.756z" fill="#eef7ff"/><path d="m329.157 335.38c6.75 11.8 4.35 26.53-5.12 36.27-3.59 3.69-7.27 7.11-11.04 10.26-35.386-59.654-84.392-84.646-85.92-86.18 3.47-3.12 6.74-6.87 9.76-11.28 9.834-9.834 24.721-11.712 36.34-5.07 23.53 13.45 42.74 32.85 55.98 56z" fill="#585966"/><path d="m276.999 304.289c-.572.564-3.923 6.136-10.296 11.778-2.926 2.591-7.318 2.622-10.345.149-17.1-13.975-28.452-19.658-29.281-20.486 3.47-3.12 6.74-6.87 9.76-11.28 9.219-9.219 23.804-12.334 37.262-4.54 8.851 5.125 10.183 17.2 2.9 24.379z" fill="#6e6f80"/><path d="m132.617 138.82c6.633 11.604 4.778 26.492-5.07 36.34-4.41 3.02-8.16 6.28-11.29 9.75-20.55-34.41-49.74-64.3-86.17-85.9 3.15-3.77 6.56-7.46 10.26-11.05 9.74-9.47 24.47-11.87 36.27-5.12 23.15 13.24 42.55 32.45 56 55.98z" fill="#585966"/><path d="m79.628 84.608c8.076 4.869 8.786 16.122 1.746 22.397-1.877 1.673-6.514 6.359-10.743 11.358-2.831 3.347-7.785 3.802-11.194 1.045-9.174-7.417-18.964-14.242-29.35-20.398 3.15-3.77 6.56-7.46 10.26-11.05 9.74-9.47 24.47-11.87 36.27-5.12 1.011.578 2.014 1.167 3.011 1.768z" fill="#6e6f80"/><path d="m459.037 110.16c10.65 11.25-.22 29.43-15.13 25.24-46.72-13.15-95.73-3.19-127.29 37.48l10.7 18.54c6.89 11.94-3.95 26.29-17.32 22.92l-106.29-26.83c-8.53-2.15-13.59-10.92-11.19-19.38l29.91-105.47c3.76-13.26 21.62-15.48 28.51-3.54l13.13 22.74c68.13-38.86 146.14-23.25 194.97 28.3z" fill="#80aaff"/><g fill="#9cbcff"><path d="m396.013 81.682c-29.345-4.175-60.362-.008-89.984 13.955-6.94 3.272-15.231.728-19.035-5.935-5.124-8.973-.491-18.827 7.91-21.593 35.299-11.623 71.633-10.167 104.034 2.008 6.722 2.526 4.185 12.576-2.925 11.565z"/><path d="m252.77 62.293c3.089 5.349 3.559 11.954.78 17.471-.985 1.955 1.439-5.881-27.183 94.689-2.778 9.763-12.818 15.539-22.66 13.056-8.529-2.152-13.59-10.92-11.19-19.38l29.91-105.47c3.76-13.26 21.62-15.48 28.51-3.54z"/></g></svg>