<?xml version="1.0" encoding="iso-8859-1"?>
<!-- Generator: Adobe Illustrator 19.0.0, SVG Export Plug-In . SVG Version: 6.00 Build 0)  -->
<svg version="1.1" id="Capa_1" xmlns="http://www.w3.org/2000/svg" xmlns:xlink="http://www.w3.org/1999/xlink" x="0px" y="0px"
	 viewBox="0 0 211.627 211.627" style="enable-background:new 0 0 211.627 211.627;" xml:space="preserve">
<path style="fill:#FFFFFF;" d="M72.049,162.133H51.366c-3.862,0-6.992-3.13-6.992-6.992V49.567
	c0-22.663,18.371-41.033,41.033-41.033h40.813c22.663,0,41.033,18.371,41.033,41.033v105.574c0,3.862-3.13,6.992-6.992,6.992h-69.41
	"/>
<path style="fill:#602F75;" d="M160.261,165.547h-69.41c-1.884,0-3.413-1.529-3.413-3.413c0-1.884,1.529-3.413,3.413-3.413h69.41
	c1.973,0,3.579-1.606,3.579-3.579V49.567c0-20.743-16.877-37.62-37.62-37.62H85.407c-20.743,0-37.62,16.877-37.62,37.62v105.574
	c0,1.973,1.606,3.579,3.579,3.579h20.683c1.884,0,3.413,1.529,3.413,3.413c0,1.884-1.529,3.413-3.413,3.413H51.366
	c-5.738,0-10.406-4.668-10.406-10.406V49.567c0-24.508,19.939-44.447,44.447-44.447h40.813c24.508,0,44.447,19.939,44.447,44.447
	v105.574C170.667,160.879,165.999,165.547,160.261,165.547z"/>
<path style="fill:#FFE600;" d="M105.813,158.72h27.307V32.427c0-7.719-12.225-20.48-27.307-20.48l0,0V158.72z"/>
<circle style="fill:#00E7FF;" cx="133.12" cy="73.387" r="13.653"/>
<path style="fill:#602F75;" d="M133.12,90.453c-9.411,0-17.067-7.656-17.067-17.067s7.656-17.067,17.067-17.067
	c9.411,0,17.067,7.656,17.067,17.067C150.187,82.797,142.531,90.453,133.12,90.453z M133.12,63.147
	c-5.647,0-10.24,4.593-10.24,10.24c0,5.647,4.593,10.24,10.24,10.24c5.647,0,10.24-4.593,10.24-10.24S138.767,63.147,133.12,63.147z
	"/>
<circle style="fill:#00E7FF;" cx="78.507" cy="73.387" r="13.653"/>
<g>
	<path style="fill:#602F75;" d="M78.507,90.453c-9.411,0-17.067-7.656-17.067-17.067S69.096,56.32,78.507,56.32
		s17.067,7.656,17.067,17.067C95.573,82.797,87.917,90.453,78.507,90.453z M78.507,63.147c-5.647,0-10.24,4.593-10.24,10.24
		c0,5.647,4.593,10.24,10.24,10.24s10.24-4.593,10.24-10.24S84.154,63.147,78.507,63.147z"/>
	<path style="fill:#602F75;" d="M119.467,128h-51.2c-1.884,0-3.413-1.529-3.413-3.413c0-1.884,1.529-3.413,3.413-3.413h51.2
		c1.884,0,3.413,1.529,3.413,3.413C122.88,126.471,121.351,128,119.467,128z"/>
</g>
<path style="fill:#FFFFFF;" d="M167.253,100.693c7.54,0,13.653-6.113,13.653-13.653s-6.113-13.653-13.653-13.653V100.693z"/>
<g>
	<path style="fill:#602F75;" d="M167.253,104.107c-1.884,0-3.413-1.529-3.413-3.413V73.387c0-1.884,1.529-3.413,3.413-3.413
		c9.411,0,17.067,7.656,17.067,17.067S176.664,104.107,167.253,104.107z M170.667,77.385v19.309
		c3.973-1.408,6.827-5.205,6.827-9.655S174.64,78.793,170.667,77.385z"/>
	<path style="fill:#602F75;" d="M194.56,90.453h-13.653c-1.884,0-3.413-1.529-3.413-3.413c0-1.884,1.529-3.413,3.413-3.413h13.653
		c1.884,0,3.413,1.529,3.413,3.413C197.973,88.924,196.444,90.453,194.56,90.453z"/>
</g>
<path style="fill:#FFFFFF;" d="M44.373,100.693c-7.54,0-13.653-6.113-13.653-13.653s6.113-13.653,13.653-13.653V100.693z"/>
<g>
	<path style="fill:#602F75;" d="M44.373,104.107c-9.411,0-17.067-7.656-17.067-17.067s7.656-17.067,17.067-17.067
		c1.884,0,3.413,1.529,3.413,3.413v27.307C47.787,102.577,46.257,104.107,44.373,104.107z M40.96,77.385
		c-3.973,1.408-6.827,5.205-6.827,9.655s2.854,8.247,6.827,9.655V77.385z"/>
	<path style="fill:#602F75;" d="M30.72,90.453H17.067c-1.884,0-3.413-1.529-3.413-3.413c0-1.884,1.529-3.413,3.413-3.413H30.72
		c1.884,0,3.413,1.529,3.413,3.413C34.133,88.924,32.604,90.453,30.72,90.453z"/>
	<path style="fill:#602F75;" d="M81.92,134.827c-1.884,0-3.413-1.529-3.413-3.413V117.76c0-1.884,1.529-3.413,3.413-3.413
		c1.884,0,3.413,1.529,3.413,3.413v13.653C85.333,133.298,83.804,134.827,81.92,134.827z"/>
</g>
<circle style="fill:#EA3457;" cx="203.093" cy="85.333" r="8.533"/>
<g>
	<path style="fill:#602F75;" d="M92.16,134.827c-1.884,0-3.413-1.529-3.413-3.413V117.76c0-1.884,1.529-3.413,3.413-3.413
		c1.884,0,3.413,1.529,3.413,3.413v13.653C95.573,133.298,94.044,134.827,92.16,134.827z"/>
	<path style="fill:#602F75;" d="M102.4,134.827c-1.884,0-3.413-1.529-3.413-3.413V117.76c0-1.884,1.529-3.413,3.413-3.413
		c1.884,0,3.413,1.529,3.413,3.413v13.653C105.813,133.298,104.284,134.827,102.4,134.827z"/>
</g>
<circle style="fill:#EA3457;" cx="8.533" cy="85.333" r="8.533"/>
<rect x="88.747" y="162.133" style="fill:#FFFFFF;" width="34.133" height="40.96"/>
<path style="fill:#602F75;" d="M122.88,206.507H88.747c-1.884,0-3.413-1.529-3.413-3.413v-40.96c0-1.884,1.529-3.413,3.413-3.413
	h34.133c1.884,0,3.413,1.529,3.413,3.413v40.96C126.293,204.978,124.764,206.507,122.88,206.507z M92.16,199.68h27.307v-34.133
	H92.16V199.68z"/>
<rect x="92.16" y="165.547" style="fill:#FFE600;" width="13.653" height="34.133"/>
<g>
</g>
<g>
</g>
<g>
</g>
<g>
</g>
<g>
</g>
<g>
</g>
<g>
</g>
<g>
</g>
<g>
</g>
<g>
</g>
<g>
</g>
<g>
</g>
<g>
</g>
<g>
</g>
<g>
</g>
</svg>
